[Header]
FileType HTR
DataType HTRS
FileVersion 1
NumSegments 22
NumFrames 5
DataFrameRate 24
EulerRotationOrder ZYX
CalibrationUnits mm
RotationUnits Degrees
GlobalAxisofGravity Y
BoneLengthAxis Y
ScaleFactor 1.0
[SegmentNames&Hierarchy]
reference	GLOBAL
Hips	reference
Spine	Hips
Spine1	Spine
Neck	Spine1
Head	Neck
LeftShoulder	Spine1
LeftArm	LeftShoulder
LeftForeArm	LeftArm
LeftHand	LeftForeArm
RightShoulder	Spine1
RightArm	RightShoulder
RightForeArm	RightArm
RightHand	RightForeArm
LeftUpLeg	Hips
LeftLeg	LeftUpLeg
LeftFoot	LeftLeg
LeftToeBase	LeftFoot
RightUpLeg	Hips
RightLeg	RightUpLeg
RightFoot	RightLeg
RightToeBase	RightFoot
[BasePosition]
reference	0	0	0	0	0	0	1
Hips	0	0	0	0	0	0	1
Spine	0	0	0	0	-0	90	1
Spine1	0	0	0	0	0	0	1
Neck	0	0	0	-7.352327771	-7.352327771	90	1
Head	0	0	0	0	-0	90	1
LeftShoulder	0	0	0	0	0	0	1
LeftArm	0	0	0	0	0	0	1
LeftForeArm	0	0	0	0	0	0	1
LeftHand	0	0	0	0	0	0	1
RightShoulder	0	0	0	0	-0	180	1
RightArm	0	0	0	0	-0	180	1
RightForeArm	0	0	0	0	-0	180	1
RightHand	0	0	0	0	-0	180	1
LeftUpLeg	0	0	0	0	-0	-90	1
LeftLeg	0	0	0	0	-0	-90	1
LeftFoot	0	0	0	66.57146043	-66.57146043	-90	1
LeftToeBase	0	0	0	0	-90	0	1
RightUpLeg	0	0	0	0	-0	-90	1
RightLeg	0	0	0	0	-0	-90	1
RightFoot	0	0	0	66.57146043	-66.57146043	-90	1
RightToeBase	0	0	0	0	-90	0	1
[reference]
39	0	0	0	0	-0	0	1.0
40	0	0	0	0	-0	0	1.0
41	0	0	0	0	-0	0	1.0
42	0	0	0	0	-0	0	1.0
43	0	0	0	0	-0	0	1.0
[Hips]
39	3.024163008	8.414345741	1.204310894	187.5800476	-101.4210129	-187.4812317	1.0
40	2.867042542	8.439056396	1.269638419	188.0622559	-107.2430878	-188.0807495	1.0
41	2.700242519	8.460561752	1.332112432	187.6977081	-112.8941116	-187.6617279	1.0
42	2.519011974	8.479719162	1.412668228	185.9658661	-117.4384079	-186.4119415	1.0
43	2.337049961	8.497677803	1.524230003	184.3230591	-121.6290741	-185.085968	1.0
[Spine]
39	0	0.7457100153	0	-8.027270317	1.276935339	-87.3829422	1.0
40	0	0.7457100153	0	-7.443548203	-0.9606411457	-87.30118561	1.0
41	0	0.7457100153	0	-7.291492939	-2.72862196	-87.35546112	1.0
42	0	0.7457100153	0	-6.400222778	-3.192936182	-88.62742615	1.0
43	0	0.7457100153	0	-6.171149254	-4.648644447	-88.57427216	1.0
[Spine1]
39	0	2.140589952	0	11.29198742	0.5175673366	-1.995568275	1.0
40	0	2.140589952	0	11.00228882	-0.305422157	-0.9667491317	1.0
41	0	2.140589952	0	11.39460468	-0.933550477	-0.3445121348	1.0
42	0	2.140589952	0	11.74029255	-1.311941028	0.2330697626	1.0
43	0	2.140589952	0	11.88614368	-1.650055289	0.3876638114	1.0
[Neck]
39	0	2.32246995	0	-10.97454834	17.52020264	-91.34942627	1.0
40	0	2.32246995	0	-12.53794956	17.43974876	-91.30203247	1.0
41	0	2.32246995	0	-13.66973686	17.0670414	-91.21517944	1.0
42	0	2.32246995	0	-13.52915382	16.95890045	-90.36446381	1.0
43	0	2.32246995	0	-13.14942837	16.99451065	-90.02882385	1.0
[Head]
39	0	1.409579992	0.1818799973	-3.086898088	10.87069893	-92.67552185	1.0
40	0	1.409579992	0.1818799973	-1.712464929	10.74585438	-91.44595337	1.0
41	0	1.409579992	0.1818799973	-1.224561691	10.28226566	-90.4581604	1.0
42	0	1.409579992	0.1818799973	-1.517870665	10.16129875	-90.86989594	1.0
43	0	1.409579992	0.1818799973	-1.675103903	10.16919327	-90.84745789	1.0
[LeftShoulder]
39	0.3668199778	1.946700096	-0.02662999928	-15.78621387	-12.08471966	-5.915192604	1.0
40	0.3668199778	1.946700096	-0.02662999928	-16.20625114	-12.49801064	-5.812272549	1.0
41	0.3668199778	1.946700096	-0.02662999928	-16.98741722	-12.80662441	-5.094032288	1.0
42	0.3668199778	1.946700096	-0.02662999928	-17.20010567	-13.24405003	-4.984419346	1.0
43	0.3668199778	1.946700096	-0.02662999928	-17.64101982	-13.58836555	-4.611078739	1.0
[LeftArm]
39	1.140689969	0	0	47.59536743	11.49350452	-73.53678894	1.0
40	1.140689969	0	0	50.96689224	9.108667374	-74.40346527	1.0
41	1.140689969	0	0	54.47537231	6.830461025	-75.62014008	1.0
42	1.140689969	0	0	56.89746475	4.746160507	-75.98707581	1.0
43	1.140689969	0	0	58.84851074	3.594720602	-76.69774628	1.0
[LeftForeArm]
39	2.749800205	0	0	-17.1218853	-13.52751637	2.399168491	1.0
40	2.749800205	0	0	-16.50036049	-18.42868042	4.710230827	1.0
41	2.749800205	0	0	-15.9393816	-23.06328964	6.927175522	1.0
42	2.749800205	0	0	-15.01227856	-27.4041748	8.210716248	1.0
43	2.749800205	0	0	-14.2673769	-30.66189766	8.842517853	1.0
[LeftHand]
39	2.295179844	0	0	-16.82991028	-4.251945496	-0.1888495386	1.0
40	2.295179844	0	0	-15.75024223	-6.028101921	0.2682874203	1.0
41	2.295179844	0	0	-14.60744572	-7.853688717	1.164572597	1.0
42	2.295179844	0	0	-13.15224361	-9.11771965	1.820212483	1.0
43	2.295179844	0	0	-12.01357746	-9.973379135	2.00452733	1.0
[RightShoulder]
39	-0.3601199985	1.946700096	-0.02662999928	-3.264098406	3.777273178	176.1993713	1.0
40	-0.3601199985	1.946700096	-0.02662999928	-3.240230322	3.863515139	176.5030212	1.0
41	-0.3601199985	1.946700096	-0.02662999928	-2.612046719	3.123535633	176.0911865	1.0
42	-0.3601199985	1.946700096	-0.02662999928	-2.195940733	2.773263931	176.3301392	1.0
43	-0.3601199985	1.946700096	-0.02662999928	-2.117004871	2.655888319	176.3219604	1.0
[RightArm]
39	-1.140689969	0	0	32.90673828	-5.645517349	-102.3752365	1.0
40	-1.140689969	0	0	28.5994854	-8.514966011	-103.1564102	1.0
41	-1.140689969	0	0	25.40408707	-9.783201218	-102.8153763	1.0
42	-1.140689969	0	0	23.58704185	-10.99048996	-102.8438873	1.0
43	-1.140689969	0	0	22.56183052	-11.98179817	-102.8162155	1.0
[RightForeArm]
39	-2.749800205	0	0	5.282944679	9.450367928	186.5376129	1.0
40	-2.749800205	0	0	6.716403961	8.220179558	188.5180054	1.0
41	-2.749800205	0	0	8.251992226	6.712126732	190.0848389	1.0
42	-2.749800205	0	0	9.330168724	5.751647949	190.8572083	1.0
43	-2.749800205	0	0	10.11455727	5.347710133	191.5415649	1.0
[RightHand]
39	-2.295179844	0	0	4.482665062	5.917192459	174.9528503	1.0
40	-2.295179844	0	0	5.890253067	5.254347324	175.3768311	1.0
41	-2.295179844	0	0	7.492702961	4.616172314	175.8699493	1.0
42	-2.295179844	0	0	8.664013863	4.115501404	176.683197	1.0
43	-2.295179844	0	0	9.487980843	3.835720062	177.4389648	1.0
[LeftUpLeg]
39	0.9094099998	0	0	6.244224072	-8.757079124	82.32998657	1.0
40	0.9094099998	0	0	6.605172157	-10.04820442	82.8066864	1.0
41	0.9094099998	0	0	6.987714291	-13.22817898	83.36071777	1.0
42	0.9094099998	0	0	9.450407028	-13.50383186	82.87995148	1.0
43	0.9094099998	0	0	9.238696098	-12.44356346	83.73196411	1.0
[LeftLeg]
39	0	-4.498080254	0	4.871704102	-10.73961258	86.87042999	1.0
40	0	-4.498080254	0	7.438801765	-11.7992239	87.80020142	1.0
41	0	-4.498080254	0	9.083162308	-13.64239216	87.77367401	1.0
42	0	-4.498080254	0	9.537169456	-14.97504044	87.42700958	1.0
43	0	-4.498080254	0	12.80910778	-19.18625259	85.5874939	1.0
[LeftFoot]
39	0	-3.729400158	0	-84.63027954	120.2002258	-28.83479691	1.0
40	0	-3.729400158	0	-89.67483521	118.1150513	-34.0310936	1.0
41	0	-3.729400158	0	-91.21765137	119.9630127	-36.4929657	1.0
42	0	-3.729400158	0	-90.63632202	118.6882706	-37.70002747	1.0
43	0	-3.729400158	0	-89.52774048	119.4848404	-36.13079071	1.0
[LeftToeBase]
39	0	-0.5911099911	1.364109993	0	0	0	1.0
40	0	-0.5911099911	1.364109993	0	0	0	1.0
41	0	-0.5911099911	1.364109993	0	0	0	1.0
42	0	-0.5911099911	1.364109993	0	0	0	1.0
43	0	-0.5911099911	1.364109993	0	0	0	1.0
[RightUpLeg]
39	-0.9094099998	0	0	-15.92374802	-4.022062302	94.23634338	1.0
40	-0.9094099998	0	0	-18.71196938	-1.73560977	96.01027679	1.0
41	-0.9094099998	0	0	-21.10031509	-1.239932537	97.5154953	1.0
42	-0.9094099998	0	0	-20.58389664	1.473500252	97.09359741	1.0
43	-0.9094099998	0	0	-20.51716232	3.995130062	95.82919312	1.0
[RightLeg]
39	0	-4.498080254	0	55.58076477	5.721779823	73.50843811	1.0
40	0	-4.498080254	0	50.33678055	1.619458199	71.32841492	1.0
41	0	-4.498080254	0	42.68795013	1.648781538	74.21603394	1.0
42	0	-4.498080254	0	32.97650909	2.028316021	78.53903198	1.0
43	0	-4.498080254	0	22.33166122	0.6909829378	82.43868256	1.0
[RightFoot]
39	0	-3.729400158	0	59.38809586	56.30912018	98.3580246	1.0
40	0	-3.729400158	0	60.98065948	58.81229401	103.0494614	1.0
41	0	-3.729400158	0	57.30307007	60.51891327	100.9929962	1.0
42	0	-3.729400158	0	61.26594543	61.81304169	104.5823975	1.0
43	0	-3.729400158	0	75.90901184	58.9658699	112.8639221	1.0
[RightToeBase]
39	0	-0.5911099911	1.364109993	0	0	0	1.0
40	0	-0.5911099911	1.364109993	0	0	0	1.0
41	0	-0.5911099911	1.364109993	0	0	0	1.0
42	0	-0.5911099911	1.364109993	0	0	0	1.0
43	0	-0.5911099911	1.364109993	0	0	0	1.0
[EndOfFile]
